<mxfile host="Electron" agent="Mozilla/5.0 (Windows NT 10.0; Win64; x64) AppleWebKit/537.36 (KHTML, like Gecko) draw.io/24.7.17 Chrome/128.0.6613.36 Electron/32.0.1 Safari/537.36" version="24.7.17">
  <diagram name="Страница — 1" id="q75xxBz2Fl6iHN6mKOdP">
    <mxGraphModel dx="1221" dy="717" grid="1" gridSize="10" guides="1" tooltips="1" connect="1" arrows="1" fold="1" page="1" pageScale="1" pageWidth="1169" pageHeight="1654" math="0" shadow="0">
      <root>
        <mxCell id="0" />
        <mxCell id="1" parent="0" />
        <mxCell id="b86VXf5yLCmzlotmY-7M-3" style="edgeStyle=orthogonalEdgeStyle;rounded=0;orthogonalLoop=1;jettySize=auto;html=1;" edge="1" parent="1" source="b86VXf5yLCmzlotmY-7M-1" target="b86VXf5yLCmzlotmY-7M-2">
          <mxGeometry relative="1" as="geometry" />
        </mxCell>
        <mxCell id="b86VXf5yLCmzlotmY-7M-1" value="&lt;font color=&quot;#ff3333&quot;&gt;Start&lt;/font&gt;" style="ellipse;whiteSpace=wrap;html=1;" vertex="1" parent="1">
          <mxGeometry x="525" y="10" width="120" height="80" as="geometry" />
        </mxCell>
        <mxCell id="b86VXf5yLCmzlotmY-7M-5" style="edgeStyle=orthogonalEdgeStyle;rounded=0;orthogonalLoop=1;jettySize=auto;html=1;" edge="1" parent="1" source="b86VXf5yLCmzlotmY-7M-2" target="b86VXf5yLCmzlotmY-7M-4">
          <mxGeometry relative="1" as="geometry" />
        </mxCell>
        <mxCell id="b86VXf5yLCmzlotmY-7M-2" value="int n;&lt;div&gt;double sum=0;&lt;/div&gt;" style="rounded=0;whiteSpace=wrap;html=1;" vertex="1" parent="1">
          <mxGeometry x="530" y="110" width="110" height="50" as="geometry" />
        </mxCell>
        <mxCell id="b86VXf5yLCmzlotmY-7M-7" style="edgeStyle=orthogonalEdgeStyle;rounded=0;orthogonalLoop=1;jettySize=auto;html=1;" edge="1" parent="1" source="b86VXf5yLCmzlotmY-7M-4" target="b86VXf5yLCmzlotmY-7M-6">
          <mxGeometry relative="1" as="geometry" />
        </mxCell>
        <mxCell id="b86VXf5yLCmzlotmY-7M-4" value="Введіть кількість членів ряду" style="shape=parallelogram;perimeter=parallelogramPerimeter;whiteSpace=wrap;html=1;fixedSize=1;" vertex="1" parent="1">
          <mxGeometry x="485" y="180" width="200" height="50" as="geometry" />
        </mxCell>
        <mxCell id="b86VXf5yLCmzlotmY-7M-9" style="edgeStyle=orthogonalEdgeStyle;rounded=0;orthogonalLoop=1;jettySize=auto;html=1;entryX=0.5;entryY=0;entryDx=0;entryDy=0;" edge="1" parent="1" source="b86VXf5yLCmzlotmY-7M-6" target="b86VXf5yLCmzlotmY-7M-8">
          <mxGeometry relative="1" as="geometry" />
        </mxCell>
        <mxCell id="b86VXf5yLCmzlotmY-7M-6" value="input n" style="shape=parallelogram;perimeter=parallelogramPerimeter;whiteSpace=wrap;html=1;fixedSize=1;" vertex="1" parent="1">
          <mxGeometry x="532.5" y="250" width="105" height="50" as="geometry" />
        </mxCell>
        <mxCell id="b86VXf5yLCmzlotmY-7M-11" style="edgeStyle=orthogonalEdgeStyle;rounded=0;orthogonalLoop=1;jettySize=auto;html=1;" edge="1" parent="1" source="b86VXf5yLCmzlotmY-7M-8" target="b86VXf5yLCmzlotmY-7M-10">
          <mxGeometry relative="1" as="geometry">
            <Array as="points">
              <mxPoint x="428" y="355" />
            </Array>
          </mxGeometry>
        </mxCell>
        <mxCell id="b86VXf5yLCmzlotmY-7M-14" value="true" style="edgeLabel;html=1;align=center;verticalAlign=middle;resizable=0;points=[];" vertex="1" connectable="0" parent="b86VXf5yLCmzlotmY-7M-11">
          <mxGeometry x="-0.3655" y="-1" relative="1" as="geometry">
            <mxPoint as="offset" />
          </mxGeometry>
        </mxCell>
        <mxCell id="b86VXf5yLCmzlotmY-7M-15" style="edgeStyle=orthogonalEdgeStyle;rounded=0;orthogonalLoop=1;jettySize=auto;html=1;entryX=0.5;entryY=0;entryDx=0;entryDy=0;" edge="1" parent="1" source="b86VXf5yLCmzlotmY-7M-8" target="b86VXf5yLCmzlotmY-7M-12">
          <mxGeometry relative="1" as="geometry" />
        </mxCell>
        <mxCell id="b86VXf5yLCmzlotmY-7M-16" value="false" style="edgeLabel;html=1;align=center;verticalAlign=middle;resizable=0;points=[];" vertex="1" connectable="0" parent="b86VXf5yLCmzlotmY-7M-15">
          <mxGeometry x="-0.2321" y="-1" relative="1" as="geometry">
            <mxPoint x="1" as="offset" />
          </mxGeometry>
        </mxCell>
        <mxCell id="b86VXf5yLCmzlotmY-7M-8" value="n&amp;lt;=0?" style="rhombus;whiteSpace=wrap;html=1;" vertex="1" parent="1">
          <mxGeometry x="528" y="330" width="113.5" height="50" as="geometry" />
        </mxCell>
        <mxCell id="b86VXf5yLCmzlotmY-7M-27" style="edgeStyle=orthogonalEdgeStyle;rounded=0;orthogonalLoop=1;jettySize=auto;html=1;entryX=0;entryY=0.5;entryDx=0;entryDy=0;" edge="1" parent="1" source="b86VXf5yLCmzlotmY-7M-10" target="b86VXf5yLCmzlotmY-7M-21">
          <mxGeometry relative="1" as="geometry" />
        </mxCell>
        <mxCell id="b86VXf5yLCmzlotmY-7M-10" value="Кількість членів ряду має бути додатнім числом!" style="shape=parallelogram;perimeter=parallelogramPerimeter;whiteSpace=wrap;html=1;fixedSize=1;" vertex="1" parent="1">
          <mxGeometry x="322.5" y="400" width="210" height="60" as="geometry" />
        </mxCell>
        <mxCell id="b86VXf5yLCmzlotmY-7M-19" style="edgeStyle=orthogonalEdgeStyle;rounded=0;orthogonalLoop=1;jettySize=auto;html=1;" edge="1" parent="1" source="b86VXf5yLCmzlotmY-7M-12" target="b86VXf5yLCmzlotmY-7M-17">
          <mxGeometry relative="1" as="geometry" />
        </mxCell>
        <mxCell id="b86VXf5yLCmzlotmY-7M-24" value="true" style="edgeLabel;html=1;align=center;verticalAlign=middle;resizable=0;points=[];" vertex="1" connectable="0" parent="b86VXf5yLCmzlotmY-7M-19">
          <mxGeometry x="0.24" y="1" relative="1" as="geometry">
            <mxPoint as="offset" />
          </mxGeometry>
        </mxCell>
        <mxCell id="b86VXf5yLCmzlotmY-7M-26" style="edgeStyle=orthogonalEdgeStyle;rounded=0;orthogonalLoop=1;jettySize=auto;html=1;entryX=1;entryY=0.5;entryDx=0;entryDy=0;" edge="1" parent="1" source="b86VXf5yLCmzlotmY-7M-12" target="b86VXf5yLCmzlotmY-7M-21">
          <mxGeometry relative="1" as="geometry">
            <Array as="points">
              <mxPoint x="860" y="430" />
              <mxPoint x="860" y="690" />
            </Array>
          </mxGeometry>
        </mxCell>
        <mxCell id="b86VXf5yLCmzlotmY-7M-12" value="i=0;i&amp;lt;=n;i++" style="rhombus;whiteSpace=wrap;html=1;" vertex="1" parent="1">
          <mxGeometry x="645" y="390" width="160" height="80" as="geometry" />
        </mxCell>
        <mxCell id="b86VXf5yLCmzlotmY-7M-20" style="edgeStyle=orthogonalEdgeStyle;rounded=0;orthogonalLoop=1;jettySize=auto;html=1;entryX=0.5;entryY=0;entryDx=0;entryDy=0;" edge="1" parent="1" source="b86VXf5yLCmzlotmY-7M-17" target="b86VXf5yLCmzlotmY-7M-18">
          <mxGeometry relative="1" as="geometry" />
        </mxCell>
        <mxCell id="b86VXf5yLCmzlotmY-7M-17" value="sum +=1.0 / i" style="rounded=0;whiteSpace=wrap;html=1;" vertex="1" parent="1">
          <mxGeometry x="670" y="500" width="110" height="40" as="geometry" />
        </mxCell>
        <mxCell id="b86VXf5yLCmzlotmY-7M-25" style="edgeStyle=orthogonalEdgeStyle;rounded=0;orthogonalLoop=1;jettySize=auto;html=1;entryX=0;entryY=0.5;entryDx=0;entryDy=0;" edge="1" parent="1" source="b86VXf5yLCmzlotmY-7M-18" target="b86VXf5yLCmzlotmY-7M-12">
          <mxGeometry relative="1" as="geometry">
            <Array as="points">
              <mxPoint x="600" y="585" />
              <mxPoint x="600" y="430" />
            </Array>
          </mxGeometry>
        </mxCell>
        <mxCell id="b86VXf5yLCmzlotmY-7M-18" value="Сума перших n членів ряду: sum" style="shape=parallelogram;perimeter=parallelogramPerimeter;whiteSpace=wrap;html=1;fixedSize=1;" vertex="1" parent="1">
          <mxGeometry x="605" y="560" width="240" height="50" as="geometry" />
        </mxCell>
        <mxCell id="b86VXf5yLCmzlotmY-7M-21" value="&lt;font color=&quot;#ff3333&quot;&gt;End&lt;/font&gt;" style="ellipse;whiteSpace=wrap;html=1;" vertex="1" parent="1">
          <mxGeometry x="525" y="650" width="120" height="80" as="geometry" />
        </mxCell>
      </root>
    </mxGraphModel>
  </diagram>
</mxfile>
